HIERARCHY
ROOT hip
{
	OFFSET 0.000000 0.000000 0.000000 
	CHANNELS 6 Xposition Yposition Zposition Xrotation Zrotation Yrotation
	JOINT abdomen
	{
		OFFSET 0.000000 3.402643 0.000000 
		CHANNELS 3 Xrotation Zrotation Yrotation
		JOINT chest
		{
			OFFSET 0.000000 8.438565 -0.680529 
			CHANNELS 3 Xrotation Zrotation Yrotation
			JOINT neck
			{
				OFFSET 0.000000 10.207942 -0.272212 
				CHANNELS 3 Xrotation Zrotation Yrotation
				JOINT head
				{
					OFFSET 0.000000 3.130431 0.000000 
					CHANNELS 3 Xrotation Zrotation Yrotation
					End Site
					{
						OFFSET 0.000000 3.130435 0.000000 
					}
				}
			}
			JOINT lCollar
			{
				OFFSET 3.470700 6.669187 -0.816635 
				CHANNELS 3 Yrotation Zrotation Xrotation
				JOINT lShldr
				{
					OFFSET 3.198488 0.000000 0.000000 
					CHANNELS 3 Zrotation Yrotation Xrotation
					JOINT lForeArm
					{
						OFFSET 10.139888 0.000000 0.000000 
						CHANNELS 3 Yrotation Zrotation Xrotation
						JOINT lHand
						{
							OFFSET 8.370511 0.000000 0.000000 
							CHANNELS 3 Zrotation Yrotation Xrotation
							End Site
							{
								OFFSET 4.083176 0.000000 0.000000 
							}
						}
					}
				}
			}
			JOINT rCollar
			{
				OFFSET -3.470700 6.669187 -0.816635 
				CHANNELS 3 Yrotation Zrotation Xrotation
				JOINT rShldr
				{
					OFFSET -3.198488 0.000000 0.000000 
					CHANNELS 3 Zrotation Yrotation Xrotation
					JOINT rForeArm
					{
						OFFSET -10.139888 0.000000 0.000000 
						CHANNELS 3 Yrotation Zrotation Xrotation
						JOINT rHand
						{
							OFFSET -8.370511 0.000000 0.000000 
							CHANNELS 3 Zrotation Yrotation Xrotation
							End Site
							{
								OFFSET -4.083176 0.000000 0.000000 
							}
						}
					}
				}
			}
		}
	}
	JOINT lThigh
	{
		OFFSET 5.308129 -1.633274 1.361059 
		CHANNELS 3 Xrotation Zrotation Yrotation
		JOINT lShin
		{
			OFFSET -2.041588 -20.007561 0.000000 
			CHANNELS 3 Xrotation Zrotation Yrotation
			JOINT lFoot
			{
				OFFSET 0.000000 -19.190928 -1.224953 
				CHANNELS 3 Xrotation Yrotation Zrotation
				End Site
				{
					OFFSET 0.000000 -2.449906 4.627600 
				}
			}
		}
	}
	JOINT rThigh
	{
		OFFSET -5.308129 -1.633274 1.361059 
		CHANNELS 3 Xrotation Zrotation Yrotation
		JOINT rShin
		{
			OFFSET 2.041588 -20.007561 0.000000 
			CHANNELS 3 Xrotation Zrotation Yrotation
			JOINT rFoot
			{
				OFFSET 0.000000 -19.190928 -1.224953 
				CHANNELS 3 Xrotation Yrotation Zrotation
				End Site
				{
					OFFSET 0.000000 -2.449906 4.627600 
				}
			}
		}
	}
}
MOTION
Frames: 9
Frame Time: 0.016667
-0.223905 43.499336 -0.749884 2.510570 -5.258650 13.802100 -21.968300 1.091660 -2.177160 19.980400 -0.917922 -0.859910 13.667300 8.888620 -6.416650 9.289710 7.496720 -4.064330 2.000000 -2.000000 0.000000 -56.893398 -6.846630 -140.496002 67.070801 -0.268113 0.125965 0.069748 -0.068475 -162.184998 -2.000000 2.000000 0.000000 52.408699 6.404690 -153.891998 -69.043503 0.263747 0.127680 -0.076099 0.060716 -159.158005 -23.760460 2.794018 -13.975723 28.066334 2.792408 2.090922 -10.793778 -19.287704 -3.666044 -19.223806 8.499770 -5.057708 33.406380 -2.027359 -2.749322 -18.957998 -16.628744 -6.831613 
-0.206040 43.517998 -0.558498 2.528880 -4.926860 13.542400 -22.033199 0.798478 -2.208260 19.990200 -0.898394 -0.918853 13.850000 9.141570 -6.524070 9.369630 7.573390 -4.154340 2.000000 -2.000000 0.000000 -56.639801 -7.003180 -140.662003 66.455597 -0.269462 0.125386 0.069631 -0.068228 -162.087997 -2.000000 2.000000 0.000000 53.307400 6.053900 -154.253998 -69.111900 0.263595 0.127738 -0.075811 0.060006 -158.884995 -23.478951 2.747233 -12.961187 28.126259 2.789241 2.109232 -10.759137 -19.548965 -3.692112 -19.006107 8.383451 -4.454987 33.581177 -2.042567 -2.739997 -19.392200 -16.813234 -7.020849 
-0.167213 43.547726 -0.403008 2.381270 -4.761530 13.259100 -21.999300 0.557965 -2.404930 19.999901 -0.908160 -1.055630 14.152100 9.236770 -6.456420 9.478850 7.630160 -4.154200 2.000000 -2.000000 0.000000 -56.464600 -7.150430 -141.072006 65.996597 -0.270465 0.124945 0.069736 -0.068451 -162.175995 -2.000000 2.000000 0.000000 53.824799 5.897320 -154.098007 -69.385300 0.262985 0.127969 -0.075709 0.059753 -158.787003 -23.087648 2.804983 -12.153880 28.224255 2.790249 2.108023 -10.893327 -19.739592 -3.761106 -18.598946 8.407906 -3.905687 33.560905 -2.048803 -2.732460 -19.725851 -16.913555 -7.165651 
-0.094139 43.576550 -0.282949 2.370780 -4.556660 12.916800 -22.074200 0.245633 -2.459370 19.892401 -1.152270 -1.129220 14.546800 9.332460 -6.413480 9.597660 7.667290 -4.183710 2.000000 -2.000000 0.000000 -56.259899 -7.414410 -141.235992 65.635300 -0.271251 0.124592 0.069701 -0.068376 -162.145996 -2.000000 2.000000 0.000000 54.215000 5.525470 -153.746994 -69.766197 0.262133 0.128287 -0.075607 0.059499 -158.688995 -22.782808 2.641302 -11.737514 28.254599 2.784335 2.115889 -11.056594 -19.331545 -3.760283 -18.335997 8.246575 -3.581680 33.510887 -2.062901 -2.727828 -19.840477 -16.824551 -7.156661 
-0.002665 43.602936 -0.180618 2.371040 -4.634720 12.347200 -22.159100 0.080426 -2.594150 19.775200 -1.386590 -1.231090 15.062100 9.338050 -6.303570 9.755600 7.684340 -4.190230 2.000000 -2.000000 0.000000 -56.221298 -7.620090 -141.557999 65.322800 -0.271930 0.124283 0.069457 -0.067856 -161.940994 -2.000000 2.000000 0.000000 54.302101 5.260410 -153.093994 -70.195801 0.261170 0.128638 -0.075516 0.059270 -158.600998 -22.538767 2.666820 -11.784014 28.353386 2.780849 2.123205 -11.383644 -18.374317 -3.691208 -18.138100 8.346905 -3.408568 33.323181 -2.077095 -2.706883 -19.729851 -16.559263 -7.021715 
0.087790 43.625843 -0.074005 2.292880 -4.703280 11.706300 -21.999201 0.029821 -2.812930 20.009600 -1.376890 -1.334520 15.470500 9.289110 -6.292020 9.923260 7.691450 -4.214570 2.000000 -2.000000 0.000000 -56.358898 -8.138600 -142.054993 65.127502 -0.272353 0.124087 0.069376 -0.067683 -161.873001 -2.000000 2.000000 0.000000 54.086800 5.279060 -152.684006 -70.586502 0.260292 0.128950 -0.075496 0.068985 -158.582001 -22.269539 2.659738 -11.953980 28.685493 2.800385 2.132613 -11.948760 -17.399815 -3.684304 -17.847721 8.454809 -3.240911 33.204315 -2.090828 -2.693964 -19.721388 -16.263172 -6.852740 
0.195694 43.628674 -0.027651 2.576750 -4.624250 10.329100 -22.116899 -0.060202 -2.746990 19.931400 -1.494050 -1.321590 15.781700 9.264110 -6.307940 9.992070 7.680640 -4.274780 2.000000 -2.000000 0.000000 -56.242401 -8.305370 -142.455002 65.274002 -0.272036 0.124234 0.069527 -0.068005 -162.000000 -2.000000 2.000000 0.000000 54.086399 5.112200 -152.283997 -70.879402 0.259632 0.129181 -0.075375 0.068680 -158.464996 -22.206367 2.605402 -11.842388 28.824850 2.785901 2.146424 -12.391021 -16.153654 -3.538845 -18.063660 8.342906 -2.884887 33.203556 -2.097638 -2.686170 -19.435568 -15.555051 -6.456471 
0.280609 43.616966 0.004536 2.771880 -4.408920 8.751470 -22.117399 -0.122303 -2.690160 19.902100 -1.435450 -1.311730 16.063801 9.308830 -6.274730 10.090600 7.679060 -4.300800 2.000000 -2.000000 0.000000 -56.194401 -8.648130 -142.962006 65.410698 -0.271739 0.124370 0.069596 -0.068154 -162.057999 -2.000000 2.000000 0.000000 54.047100 5.180170 -152.098007 -71.045502 0.259257 0.129310 -0.075165 0.068145 -158.259995 -22.058167 2.540523 -11.423162 29.033047 2.768659 2.158570 -12.821795 -15.037944 -3.374862 -18.231228 8.147948 -2.445898 33.332478 -2.093166 -2.720878 -19.228376 -14.686913 -6.014112 
0.349953 43.601128 0.011536 2.947130 -4.135170 7.111370 -22.106701 -0.178991 -2.730190 19.853399 -1.230380 -1.332560 16.255301 9.400200 -6.190720 10.121100 7.736850 -4.310250 2.000000 -2.000000 0.000000 -56.068401 -8.825110 -143.587006 65.674400 -0.271166 0.124630 0.069631 -0.068228 -162.087997 -2.000000 2.000000 0.000000 54.066502 5.336170 -151.979996 -71.211502 0.258883 0.129439 -0.074741 0.067049 -157.839996 -21.851168 2.460966 -10.985597 29.103754 2.749151 2.162830 -13.164813 -13.947918 -3.184695 -18.441048 7.962094 -1.888497 33.536789 -2.104749 -2.710101 -19.082472 -13.899034 -5.615419 
